<?xml version="1.0" standalone="no"?>
<!DOCTYPE svg PUBLIC "-//W3C//DTD SVG 20010904//EN"
 "http://www.w3.org/TR/2001/REC-SVG-20010904/DTD/svg10.dtd">
<svg version="1.0" xmlns="http://www.w3.org/2000/svg"
 width="1000.000000pt" height="298.000000pt" viewBox="0 0 1000.000000 298.000000"
 preserveAspectRatio="xMidYMid meet">

<g transform="translate(0.000000,298.000000) scale(0.100000,-0.100000)"
fill="#000000" stroke="none">
<path d="M4350 2813 c-333 -9 -1193 -74 -1360 -102 -30 -5 -84 -13 -120 -16
-271 -27 -870 -132 -1186 -209 -330 -80 -650 -183 -859 -276 -22 -10 -65 -28
-95 -41 -136 -58 -303 -164 -422 -269 -18 -16 -36 -30 -40 -30 -5 0 -8 -4 -8
-10 0 -5 -8 -19 -18 -31 -9 -11 -27 -33 -39 -47 -13 -15 -23 -33 -23 -39 0 -7
-4 -13 -10 -13 -5 0 -10 -9 -10 -20 0 -11 -4 -20 -10 -20 -5 0 -10 -13 -10
-29 0 -17 -4 -33 -10 -36 -14 -8 -13 -150 1 -194 24 -74 57 -135 96 -176 7 -8
13 -16 13 -20 0 -16 107 -106 220 -186 111 -78 382 -210 560 -274 180 -65 557
-174 701 -204 24 -5 119 -25 212 -45 572 -123 1256 -206 2117 -258 294 -18
1606 -18 1900 0 840 51 1490 128 2075 248 1043 214 1679 511 1843 861 24 52
27 70 27 163 0 95 -3 111 -29 168 -16 34 -32 62 -35 62 -4 0 -15 14 -25 31
-20 34 -122 139 -135 139 -4 0 -19 10 -32 21 -51 45 -227 154 -309 191 -47 22
-98 45 -115 53 -69 31 -315 124 -385 145 -41 12 -124 37 -185 55 -247 76 -681
169 -1060 229 -88 14 -189 30 -225 36 -305 50 -997 111 -1510 135 -290 13
-1137 18 -1500 8z m1565 -102 c858 -50 1454 -121 2085 -247 169 -33 518 -116
570 -134 14 -5 59 -18 100 -30 121 -35 221 -67 280 -90 30 -12 84 -32 120 -45
85 -30 324 -143 328 -155 2 -6 10 -10 17 -10 8 0 31 -11 52 -25 21 -14 45 -30
53 -35 8 -5 35 -23 60 -39 50 -33 170 -153 170 -170 0 -6 4 -11 8 -11 5 0 14
-16 22 -35 8 -19 17 -35 22 -35 4 0 8 -13 8 -30 0 -16 5 -30 10 -30 13 0 13
-107 0 -115 -5 -3 -10 -17 -10 -31 0 -13 -4 -24 -10 -24 -5 0 -10 -9 -10 -20
0 -11 -4 -20 -10 -20 -5 0 -10 -7 -10 -16 0 -9 -13 -30 -30 -47 -16 -18 -47
-51 -69 -75 -42 -44 -205 -159 -260 -181 -17 -8 -31 -17 -31 -22 0 -5 -6 -9
-13 -9 -7 0 -30 -10 -52 -21 -131 -70 -529 -217 -730 -269 -38 -10 -115 -30
-170 -45 -279 -74 -793 -169 -1185 -219 -69 -9 -177 -23 -240 -31 -271 -34
-884 -79 -1291 -95 -355 -13 -1011 -13 -1365 0 -392 15 -999 58 -1254 90 -217
27 -480 62 -525 70 -27 5 -111 18 -185 30 -464 73 -1033 215 -1360 341 -30 11
-64 23 -75 26 -50 14 -421 204 -435 223 -3 4 -16 13 -28 19 -66 35 -182 155
-228 236 -36 65 -39 75 -39 150 0 68 4 89 29 140 36 74 161 202 261 267 455
296 1306 531 2415 667 489 60 767 81 1510 115 157 7 1323 -3 1495 -13z"/>
<path d="M1965 2083 c-11 -3 -31 -13 -45 -23 -14 -10 -42 -22 -62 -28 -34 -9
-37 -8 -40 11 -2 13 -11 23 -23 25 -20 3 -20 -2 -17 -462 l3 -466 -35 -17
c-20 -9 -36 -20 -36 -25 0 -4 52 -8 115 -8 92 0 115 3 115 14 0 8 -16 18 -37
23 l-38 9 -3 148 -3 148 118 -4 c136 -5 169 -16 231 -77 l42 -41 0 -110 0
-110 75 0 c49 0 75 4 75 11 0 16 -31 38 -52 39 -16 0 -18 11 -18 93 0 105 -16
150 -71 208 l-34 36 27 21 c14 12 38 45 52 74 24 49 26 61 26 196 0 114 -4
152 -17 180 -20 44 -77 102 -118 121 -31 14 -195 24 -230 14z m137 -87 c47
-11 65 -22 103 -61 l45 -48 0 -129 c0 -79 -4 -128 -10 -128 -5 0 -10 -6 -10
-13 0 -26 -61 -79 -107 -93 -47 -14 -199 -19 -240 -8 -23 6 -23 9 -23 173 0
91 5 182 10 202 13 46 57 87 111 104 56 17 53 17 121 1z"/>
<path d="M4705 2071 c-57 -21 -145 -100 -145 -131 0 -11 -3 -20 -7 -20 -5 0
-6 -145 -5 -322 4 -369 5 -397 12 -395 9 3 79 -70 74 -76 -3 -3 20 -14 51 -26
70 -26 190 -28 260 -4 67 22 149 103 165 162 17 65 10 657 -9 690 -24 43 -80
92 -134 116 -66 31 -185 34 -262 6z m233 -92 c51 -22 62 -33 85 -82 16 -34 18
-67 15 -327 -2 -214 -6 -292 -15 -302 -7 -6 -13 -18 -13 -26 0 -20 -20 -36
-70 -54 -78 -29 -115 -31 -177 -12 -32 10 -62 24 -66 31 -4 7 -13 13 -18 13
-6 0 -17 7 -25 15 -9 8 -12 15 -8 15 4 0 0 8 -9 18 -15 16 -17 52 -14 323 2
277 4 306 21 331 54 80 183 105 294 57z"/>
<path d="M1040 2055 c0 -8 11 -17 24 -21 31 -7 61 -39 47 -49 -16 -9 -15 -339
1 -364 9 -15 9 -25 0 -46 -17 -36 -17 -415 0 -415 6 0 1 -9 -12 -20 -13 -11
-31 -20 -42 -20 -10 0 -18 -7 -18 -15 0 -12 19 -15 110 -15 85 0 110 3 110 13
0 8 -18 19 -40 26 l-40 12 0 184 c0 101 3 190 6 199 5 13 25 16 119 16 128 0
145 -4 145 -32 0 -21 22 -48 39 -48 7 0 11 41 11 120 0 123 -4 133 -39 111 -8
-5 -12 -18 -8 -30 3 -14 -1 -24 -13 -31 -22 -12 -230 -13 -248 -2 -9 7 -12 50
-10 183 l3 174 169 3 c116 2 173 -1 182 -9 8 -6 14 -27 14 -45 0 -19 5 -34 10
-34 6 0 10 -9 10 -20 0 -11 6 -20 13 -20 9 0 11 21 10 77 -1 43 -2 90 -3 106
l0 27 -275 0 c-236 0 -275 -2 -275 -15z"/>
<path d="M2477 2063 c-9 -8 24 -32 46 -33 10 0 22 -11 27 -24 9 -24 12 -816 4
-848 -3 -10 -25 -26 -50 -37 -24 -11 -44 -22 -44 -25 0 -3 131 -6 290 -6 l290
0 0 105 c0 59 -4 105 -9 105 -16 0 -22 -18 -23 -70 -1 -42 -5 -51 -22 -56 -12
-2 -93 -3 -181 -2 l-160 3 -3 183 -2 184 129 -4 c134 -3 166 -12 143 -41 -12
-14 1 -37 20 -37 4 0 8 54 8 120 0 66 -4 120 -9 120 -15 0 -33 -29 -28 -44 12
-30 -19 -38 -137 -34 -63 1 -117 5 -120 8 -4 5 -9 274 -6 348 0 15 304 17 344
2 22 -8 25 -16 28 -61 2 -31 8 -54 16 -57 9 -3 12 22 12 102 l0 106 -278 0
c-153 0 -282 -3 -285 -7z"/>
<path d="M3157 2064 c-7 -8 17 -34 32 -34 5 0 13 -4 16 -10 4 -7 9 -800 6
-876 -1 -6 -14 -17 -31 -24 -16 -7 -30 -16 -30 -21 0 -5 126 -9 281 -9 252 0
281 2 275 16 -3 9 -6 54 -6 100 0 52 -4 84 -11 84 -5 0 -7 -5 -4 -10 4 -6 0
-22 -9 -35 -9 -13 -16 -33 -16 -44 0 -10 -7 -22 -16 -25 -20 -8 -318 -8 -338
0 -14 5 -16 30 -16 169 0 90 3 170 6 179 5 13 26 16 130 16 116 0 124 -1 138
-22 9 -12 16 -30 16 -40 0 -10 7 -18 15 -18 13 0 15 20 15 120 0 89 -3 120
-12 120 -13 0 -38 -44 -38 -67 0 -10 -29 -13 -122 -13 -68 0 -129 4 -136 8 -9
7 -12 50 -10 183 l3 174 160 3 c171 3 205 -1 205 -22 0 -7 8 -28 18 -47 l17
-34 5 85 c3 47 4 88 2 93 -4 8 -536 10 -545 1z"/>
<path d="M3837 2064 c-11 -11 5 -34 24 -34 10 0 25 -10 33 -22 14 -19 16 -79
16 -444 l0 -422 -34 -12 c-19 -6 -40 -18 -46 -26 -20 -23 397 -21 465 3 60 20
127 86 143 141 17 55 17 619 0 674 -11 36 -37 70 -83 107 -40 32 -106 41 -310
41 -111 0 -204 -3 -208 -6z m433 -98 c57 -21 90 -56 90 -96 0 -16 4 -30 9 -30
13 0 15 -517 1 -525 -5 -3 -10 -19 -10 -34 0 -41 -47 -81 -117 -97 -59 -14
-218 -19 -247 -8 -14 5 -16 51 -16 411 l0 406 123 -6 c76 -3 139 -11 167 -21z"/>
<path d="M5204 2059 c-7 -13 13 -29 37 -29 30 0 39 -23 26 -65 -9 -30 -9 -39
1 -43 16 -5 17 -714 1 -761 -8 -23 -19 -34 -40 -38 -16 -3 -29 -12 -29 -19 0
-11 23 -14 110 -14 83 0 110 3 110 13 0 7 -13 18 -30 24 l-30 11 1 354 c0 329
1 350 16 316 8 -21 21 -38 28 -38 16 0 39 -55 31 -75 -3 -8 0 -15 7 -15 17 -1
72 -113 57 -118 -7 -3 -3 -10 9 -19 12 -8 21 -20 21 -28 0 -7 9 -30 19 -52 11
-21 25 -53 33 -70 7 -18 16 -33 20 -33 5 0 8 -7 8 -16 0 -12 10 -14 52 -12
l52 3 116 249 c81 176 116 242 119 225 1 -13 8 -27 15 -31 8 -5 11 -95 11
-320 l0 -313 -42 -20 c-24 -11 -43 -23 -43 -27 0 -5 54 -8 120 -8 127 0 148 9
85 36 l-35 14 0 444 0 444 35 6 c21 4 35 13 35 21 0 12 -16 15 -72 15 -40 0
-77 -4 -83 -8 -10 -7 -71 -128 -95 -187 -7 -16 -17 -39 -23 -50 -6 -11 -19
-38 -30 -60 -11 -22 -23 -48 -28 -57 -5 -10 -9 -23 -9 -29 0 -6 -13 -30 -30
-54 -16 -24 -30 -48 -30 -54 0 -6 -4 -19 -9 -29 -5 -9 -12 -25 -15 -35 -3 -11
-15 -21 -26 -24 -11 -3 -20 -10 -20 -17 0 -15 -35 43 -45 75 -4 13 -41 92 -81
176 -41 83 -74 157 -74 162 0 6 -5 11 -11 11 -5 0 -8 4 -4 9 3 5 -2 16 -10 24
-8 9 -15 23 -15 31 0 9 -4 16 -10 16 -5 0 -10 9 -10 20 0 11 -4 20 -10 20 -5
0 -10 11 -10 24 0 13 -7 27 -16 30 -27 11 -152 7 -160 -5z"/>
<path d="M6984 2054 c3 -9 6 -18 6 -20 0 -2 9 -4 19 -4 11 0 22 -4 25 -9 3 -4
6 -206 6 -447 l1 -439 -30 -14 c-17 -8 -31 -18 -31 -23 0 -4 52 -8 116 -8 88
0 115 3 112 13 -3 6 -23 18 -46 26 l-42 13 0 429 c1 236 3 436 6 443 3 8 23
17 45 21 24 4 39 12 39 21 0 11 -23 14 -116 14 -102 0 -115 -2 -110 -16z"/>
<path d="M7303 2063 c-18 -7 4 -28 40 -37 l27 -6 0 -445 c0 -383 -2 -445 -15
-445 -20 0 -65 -22 -65 -32 0 -4 54 -8 120 -8 97 0 120 3 120 14 0 15 -31 30
-70 35 -6 1 -10 127 -10 359 l1 357 21 -40 c12 -22 21 -44 20 -48 -1 -5 1 -6
6 -3 5 3 15 -7 23 -22 8 -15 16 -29 19 -32 3 -3 10 -16 16 -30 70 -151 69
-150 97 -220 5 -14 16 -36 24 -50 8 -14 17 -33 20 -42 3 -10 9 -18 14 -18 5 0
9 -11 9 -24 0 -14 5 -28 10 -31 6 -3 10 -15 10 -26 0 -10 5 -19 10 -19 6 0 10
-9 10 -20 0 -11 5 -20 10 -20 6 0 10 -7 10 -15 0 -8 5 -15 11 -15 6 0 9 -12 7
-27 -4 -41 23 -63 77 -63 l45 0 0 470 0 469 35 7 c20 3 35 12 35 20 0 11 -24
14 -115 14 -95 0 -115 -3 -115 -15 0 -8 12 -17 28 -21 15 -3 33 -7 40 -10 15
-4 18 -644 2 -644 -5 0 -10 -15 -10 -32 l0 -33 -19 40 c-11 22 -45 94 -76 160
-31 66 -73 156 -94 200 -21 44 -44 95 -51 113 -7 17 -16 32 -21 32 -5 0 -9 9
-9 20 0 11 -4 20 -10 20 -5 0 -10 9 -10 20 0 11 -4 20 -10 20 -5 0 -10 10 -10
22 0 12 -11 41 -25 65 l-26 43 -72 -1 c-40 0 -78 -3 -84 -6z"/>
<path d="M8062 2061 c-13 -8 8 -20 66 -36 l22 -6 0 -443 0 -442 -37 -10 c-20
-5 -38 -15 -41 -21 -3 -10 23 -13 107 -13 84 0 111 3 111 13 0 7 -13 18 -30
24 l-30 11 0 445 0 445 35 6 c21 4 35 13 35 21 0 12 -21 15 -112 15 -62 0
-119 -4 -126 -9z"/>
<path d="M8374 2064 c-9 -4 -8 -21 2 -66 10 -44 12 -70 4 -96 -10 -40 -8 -47
13 -39 8 3 17 26 21 54 13 87 7 83 106 83 82 0 162 -16 133 -27 -10 -4 -13
-98 -13 -424 0 -360 -2 -419 -15 -419 -20 0 -65 -22 -65 -32 0 -4 54 -8 120
-8 93 0 120 3 120 13 0 8 -17 18 -37 23 l-38 9 -3 433 -2 432 99 0 c116 0 122
-4 129 -86 4 -45 8 -54 23 -54 17 0 19 9 19 105 l0 105 -302 -1 c-167 0 -308
-3 -314 -5z"/>
<path d="M6193 933 c-7 -2 -13 -20 -13 -39 l0 -34 380 0 380 0 0 40 0 40 -367
-1 c-203 0 -374 -3 -380 -6z"/>
</g>
</svg>
