<?xml version="1.0" standalone="no"?>
<!DOCTYPE svg PUBLIC "-//W3C//DTD SVG 20010904//EN"
 "http://www.w3.org/TR/2001/REC-SVG-20010904/DTD/svg10.dtd">
<svg version="1.0" xmlns="http://www.w3.org/2000/svg"
 width="393.000000pt" height="168.000000pt" viewBox="0 0 393.000000 168.000000"
 preserveAspectRatio="xMidYMid meet">

<g transform="translate(0.000000,168.000000) scale(0.100000,-0.100000)"
fill="#000000" stroke="none">
<path d="M562 1419 l-342 -202 1 -211 c1 -116 4 -296 8 -400 l6 -189 340 -193
c187 -107 346 -191 353 -189 8 3 164 94 348 202 325 191 334 197 310 210 -31
16 6 35 -368 -184 l-297 -174 -198 111 c-109 62 -253 144 -321 182 l-122 69 0
173 c0 95 -3 260 -7 367 l-6 195 314 183 c173 102 318 186 322 189 4 2 152
-78 328 -177 270 -154 322 -180 339 -171 11 6 20 14 20 19 0 7 -669 391 -681
391 -3 0 -158 -91 -347 -201z"/>
<path d="M861 1507 c-19 -11 -29 -23 -22 -25 6 -2 23 3 36 12 13 9 29 16 34
16 5 0 141 -74 301 -165 260 -147 336 -186 304 -156 -18 17 -597 341 -608 340
-6 0 -26 -10 -45 -22z"/>
<path d="M557 1328 l-257 -151 2 -356 3 -355 305 -173 c176 -100 311 -171 320
-167 15 5 549 317 585 341 14 9 15 13 5 13 -9 0 -146 -77 -305 -170 -173 -102
-296 -168 -305 -165 -8 4 -144 79 -302 168 l-288 162 3 348 2 349 242 141
c133 78 245 148 247 155 3 6 4 12 3 12 -1 0 -118 -68 -260 -152z"/>
<path d="M775 1148 c-169 -38 -172 -40 -155 -147 8 -52 10 -114 5 -175 -8
-111 2 -155 49 -204 33 -36 129 -89 209 -116 46 -16 48 -15 125 15 107 42 176
91 202 144 18 37 20 58 18 176 -2 74 1 162 6 195 8 56 7 63 -11 72 -20 11
-290 73 -308 71 -5 -1 -68 -15 -140 -31z m298 -17 c71 -15 135 -34 142 -42 12
-12 12 -26 1 -91 -8 -48 -12 -119 -9 -190 5 -107 4 -115 -19 -148 -13 -19 -45
-49 -70 -66 -44 -30 -170 -84 -195 -84 -28 0 -185 75 -221 106 -55 47 -66 85
-59 208 4 64 1 128 -7 174 -9 55 -10 77 -1 89 11 15 231 70 285 72 14 0 83
-12 153 -28z"/>
<path d="M1480 855 l0 -105 90 0 c83 0 90 1 90 20 0 18 -7 20 -70 20 l-70 0 0
85 c0 78 -2 85 -20 85 -19 0 -20 -7 -20 -105z"/>
<path d="M1680 855 l0 -105 90 0 c83 0 90 1 90 20 0 18 -7 20 -71 20 -67 0
-70 1 -67 23 3 20 9 22 66 25 54 3 62 6 62 22 0 18 -7 20 -65 20 -58 0 -65 2
-65 20 0 18 7 20 70 20 63 0 70 2 70 20 0 19 -7 20 -90 20 l-90 0 0 -105z"/>
<path d="M1902 948 c-7 -7 -12 -43 -12 -93 0 -50 5 -86 12 -93 7 -7 41 -12 83
-12 42 0 76 5 83 12 7 7 12 34 12 60 l0 48 -45 0 c-38 0 -45 -3 -45 -20 0 -15
7 -20 25 -20 18 0 25 -5 25 -20 0 -18 -7 -20 -55 -20 l-55 0 0 65 0 65 55 0
c30 0 55 -4 55 -10 0 -5 9 -10 20 -10 23 0 27 29 8 48 -16 16 -150 16 -166 0z"/>
<path d="M2142 927 c-30 -31 -32 -38 -32 -105 0 -65 2 -72 20 -72 16 0 20 7
20 35 l0 35 55 0 55 0 0 -35 c0 -28 4 -35 20 -35 19 0 20 7 20 105 l0 105 -63
0 c-58 0 -66 -3 -95 -33z m118 -37 c0 -30 -1 -30 -55 -30 -30 0 -55 3 -55 7 0
21 47 53 77 53 30 0 33 -3 33 -30z"/>
<path d="M2330 855 l0 -105 90 0 c83 0 90 1 90 20 0 18 -7 20 -70 20 l-70 0 0
85 c0 78 -2 85 -20 85 -19 0 -20 -7 -20 -105z"/>
<path d="M2664 946 c-3 -7 -4 -33 -2 -57 l3 -44 70 -5 c63 -5 70 -7 73 -27 3
-22 0 -23 -52 -23 -31 0 -56 5 -56 10 0 6 -9 10 -21 10 -16 0 -20 -5 -17 -27
3 -28 4 -28 81 -31 50 -2 84 1 93 9 17 14 19 90 2 107 -7 7 -39 12 -75 12 -56
0 -63 2 -63 20 0 18 7 20 55 20 30 0 55 -4 55 -10 0 -5 9 -10 20 -10 23 0 27
29 8 48 -18 18 -167 16 -174 -2z"/>
<path d="M2880 855 c0 -98 1 -105 20 -105 17 0 20 7 20 45 l0 45 55 0 55 0 0
-45 c0 -38 3 -45 20 -45 19 0 20 7 20 105 0 98 -1 105 -20 105 -17 0 -20 -7
-20 -40 l0 -40 -55 0 -55 0 0 40 c0 33 -3 40 -20 40 -19 0 -20 -7 -20 -105z"/>
<path d="M3100 855 c0 -98 1 -105 20 -105 19 0 20 7 20 105 0 98 -1 105 -20
105 -19 0 -20 -7 -20 -105z"/>
<path d="M3180 855 l0 -105 90 0 c83 0 90 1 90 20 0 18 -7 20 -70 20 -68 0
-70 1 -70 25 0 24 3 25 60 25 53 0 60 2 60 20 0 18 -7 20 -60 20 -53 0 -60 2
-60 20 0 18 7 20 70 20 63 0 70 2 70 20 0 19 -7 20 -90 20 l-90 0 0 -105z"/>
<path d="M3390 855 l0 -105 85 0 c78 0 85 2 85 20 0 18 -7 20 -65 20 l-65 0 0
85 c0 78 -2 85 -20 85 -19 0 -20 -7 -20 -105z"/>
<path d="M3590 855 l0 -105 83 0 c51 0 88 5 95 12 7 7 12 39 12 73 0 56 -3 64
-33 93 -30 29 -39 32 -95 32 l-62 0 0 -105z m127 43 c17 -16 23 -32 23 -65 l0
-43 -55 0 -55 0 0 65 0 65 32 0 c19 0 41 -9 55 -22z"/>
<path d="M2520 730 c0 -18 7 -20 60 -20 53 0 60 2 60 20 0 18 -7 20 -60 20
-53 0 -60 -2 -60 -20z"/>
</g>
</svg>
