<?xml version="1.0" standalone="no"?>
<!DOCTYPE svg PUBLIC "-//W3C//DTD SVG 20010904//EN"
 "http://www.w3.org/TR/2001/REC-SVG-20010904/DTD/svg10.dtd">
<svg version="1.0" xmlns="http://www.w3.org/2000/svg"
 width="378.000000pt" height="450.000000pt" viewBox="0 0 378.000000 450.000000"
 preserveAspectRatio="xMidYMid meet">

<g transform="translate(0.000000,450.000000) scale(0.100000,-0.100000)"
fill="#000000" stroke="none">
<path d="M1511 4420 c-121 -26 -231 -119 -271 -231 -11 -31 -19 -38 -49 -43
-101 -17 -204 -99 -253 -202 -35 -76 -45 -146 -29 -221 l13 -58 -42 -44 c-88
-92 -125 -218 -96 -329 22 -87 46 -129 106 -188 l51 -51 -20 -61 c-67 -198 53
-410 261 -462 42 -11 47 -16 68 -67 28 -67 100 -142 172 -177 147 -72 340 -28
442 101 l32 40 29 -39 c17 -22 56 -57 88 -78 179 -120 436 -48 524 148 29 62
38 72 69 72 37 0 141 59 182 104 97 105 123 230 77 372 l-17 51 51 48 c149
140 154 366 11 514 l-42 43 13 64 c37 186 -100 390 -282 420 -33 6 -38 11 -60
63 -27 66 -103 146 -170 179 -147 71 -319 37 -429 -86 l-47 -52 -32 41 c-37
45 -117 100 -171 117 -53 17 -130 22 -179 12z m187 -121 c40 -20 72 -44 92
-72 61 -83 60 -67 60 -892 0 -841 2 -816 -70 -897 -72 -82 -207 -116 -301 -76
-87 38 -188 168 -131 168 38 0 142 62 186 111 98 109 128 316 48 327 -39 6
-52 -15 -52 -83 0 -52 -6 -75 -33 -127 -127 -246 -497 -155 -497 123 0 32 7
76 15 97 l16 39 47 -7 c74 -12 163 4 231 40 97 52 145 122 109 158 -21 21 -47
13 -91 -27 -69 -63 -101 -76 -192 -76 -69 0 -86 4 -127 27 -97 58 -145 152
-135 264 7 72 22 107 66 148 l30 29 46 -42 c26 -24 72 -55 103 -69 49 -23 70
-27 147 -27 76 0 98 4 140 25 43 21 50 29 50 54 0 44 -25 54 -85 32 -140 -50
-282 2 -344 126 -66 133 -4 308 130 364 53 22 61 19 66 -31 16 -142 157 -281
305 -301 60 -8 93 6 93 40 0 32 -17 44 -78 56 -69 13 -122 41 -162 86 -47 55
-63 99 -64 179 0 59 4 78 29 124 72 131 220 177 353 110z m631 0 c98 -49 145
-125 145 -234 0 -61 -4 -78 -30 -125 -36 -63 -97 -115 -154 -130 -128 -33
-120 -29 -120 -60 0 -40 29 -54 93 -46 147 20 289 160 305 301 5 50 13 53 66
31 92 -38 156 -137 156 -242 0 -193 -182 -316 -370 -248 -48 17 -50 17 -70 -1
-33 -30 -22 -57 35 -85 42 -21 64 -25 140 -25 77 0 98 4 147 27 31 14 77 45
103 69 l46 42 25 -24 c39 -36 66 -96 71 -159 15 -166 -122 -302 -287 -287 -67
6 -110 26 -167 78 -44 40 -70 48 -91 27 -36 -36 12 -106 109 -158 68 -36 157
-52 231 -40 l47 7 16 -39 c8 -21 15 -66 15 -99 0 -197 -204 -323 -383 -235
-95 46 -147 135 -147 251 0 55 -12 75 -46 75 -34 0 -49 -27 -51 -98 -2 -54 3
-76 27 -128 16 -35 48 -84 71 -108 41 -45 145 -106 181 -106 57 0 -44 -130
-131 -168 -90 -38 -228 -6 -296 69 -75 83 -70 22 -70 909 l0 795 29 53 c73
131 221 178 355 111z"/>
<path d="M322 3237 c-44 -14 -118 -80 -145 -131 -22 -40 -22 -49 -25 -468 l-3
-428 51 0 50 0 0 418 0 419 29 40 c30 41 89 73 137 73 58 0 131 -54 153 -113
7 -18 11 -171 11 -433 l0 -404 51 0 50 0 -3 423 c-3 413 -3 423 -25 463 -56
105 -133 154 -238 153 -33 -1 -75 -6 -93 -12z"/>
<path d="M3264 3226 c-51 -24 -106 -81 -135 -141 -11 -24 -15 -109 -17 -452
l-3 -423 50 0 51 0 0 405 c0 448 0 446 63 502 60 53 145 54 209 3 57 -44 58
-51 58 -499 l0 -411 50 0 50 0 0 410 c0 388 -1 412 -21 464 -24 65 -96 136
-157 154 -64 19 -141 15 -198 -12z"/>
<path d="M238 1923 c11 -21 41 -98 67 -171 36 -99 53 -132 64 -130 9 2 30 41
52 97 l36 93 35 -93 c49 -132 56 -129 129 56 79 200 75 187 48 183 -19 -2 -30
-21 -65 -113 -24 -60 -45 -119 -49 -130 -5 -19 -30 40 -83 198 -13 38 -20 47
-39 47 -27 0 -28 -4 -9 -56 12 -37 11 -44 -19 -123 l-31 -84 -28 79 c-67 188
-65 184 -97 184 l-29 0 18 -37z"/>
<path d="M752 1797 c-34 -89 -62 -165 -62 -169 0 -5 8 -8 19 -8 13 0 24 14 35
45 l18 45 62 0 63 0 17 -45 c15 -37 22 -45 43 -45 30 0 34 -16 -43 188 -41
109 -61 152 -73 152 -11 0 -34 -46 -79 -163z m114 -23 c6 -23 4 -24 -41 -24
-33 0 -46 4 -43 13 3 6 13 36 24 65 l19 54 17 -42 c10 -24 21 -53 24 -66z"/>
<path d="M1034 1923 c3 -21 6 -98 6 -170 0 -126 1 -133 20 -133 18 0 20 7 20
65 0 61 1 65 23 65 16 0 34 -18 67 -65 33 -47 51 -65 68 -65 32 0 28 14 -22
79 l-44 57 29 32 c31 35 39 85 18 124 -15 29 -70 48 -135 48 l-57 0 7 -37z
m131 -28 c30 -29 31 -45 4 -79 -15 -19 -30 -26 -55 -26 l-34 0 0 65 0 65 30 0
c19 0 40 -9 55 -25z"/>
<path d="M1520 1940 c0 -17 7 -20 50 -20 l50 0 0 -150 0 -150 25 0 25 0 0 150
0 150 55 0 c48 0 55 2 55 20 0 19 -7 20 -130 20 -123 0 -130 -1 -130 -20z"/>
<path d="M1840 1791 l0 -171 25 0 c25 0 25 1 25 80 l0 80 90 0 90 0 0 -80 c0
-80 0 -80 26 -80 22 0 25 3 20 23 -3 12 -6 88 -6 170 l0 147 -24 0 c-23 0 -23
-2 -18 -70 l5 -70 -91 0 -91 0 -3 68 c-3 61 -5 67 -25 70 l-23 3 0 -170z"/>
<path d="M2224 1938 c3 -13 6 -89 6 -170 l0 -148 79 0 c75 0 91 6 91 36 0 2
-29 4 -65 4 l-65 0 0 60 0 60 49 0 c33 0 51 5 54 14 5 12 -5 16 -46 18 l-52 3
-3 53 -3 52 66 0 c58 0 66 2 63 18 -3 14 -17 17 -92 20 -88 3 -89 3 -82 -20z"/>
<path d="M2484 1923 c3 -21 6 -98 6 -170 0 -126 1 -133 20 -133 18 0 20 7 20
65 0 58 2 65 20 65 12 0 37 -23 67 -65 39 -52 53 -64 76 -65 33 0 30 7 -32 84
l-40 50 30 33 c31 36 39 86 18 125 -15 29 -70 48 -135 48 l-57 0 7 -37z m132
-28 c19 -19 23 -31 18 -48 -11 -38 -35 -57 -71 -57 l-33 0 0 65 0 65 30 0 c20
0 40 -9 56 -25z"/>
<path d="M2851 1938 c-8 -21 -107 -276 -119 -306 -3 -10 2 -13 18 -10 17 2 27
15 39 46 l15 42 67 0 66 0 13 -45 c11 -40 16 -45 41 -45 27 0 28 1 17 28 -6
15 -34 90 -63 167 -53 144 -75 172 -94 123z m47 -128 l21 -60 -49 0 -49 0 21
60 c12 33 25 60 29 60 4 0 16 -27 27 -60z"/>
<path d="M3080 1790 l0 -170 25 0 c25 0 26 0 19 65 l-7 65 33 0 c94 0 161 91
114 158 -24 34 -68 52 -129 52 l-55 0 0 -170z m128 114 c50 -35 12 -118 -51
-112 -31 3 -32 5 -35 52 -2 27 -1 55 2 62 7 19 56 18 84 -2z"/>
<path d="M3335 1915 c14 -25 36 -65 50 -89 21 -37 25 -58 25 -125 0 -80 0 -81
25 -81 24 0 25 2 25 76 0 73 2 80 50 165 28 49 50 91 50 94 0 3 -9 5 -20 5
-14 0 -31 -20 -59 -71 l-39 -72 -39 71 c-33 62 -42 72 -66 72 l-28 0 26 -45z"/>
<path d="M1280 1565 c0 -13 17 -15 117 -13 82 2 118 7 121 16 3 9 -25 12 -117
12 -102 0 -121 -2 -121 -15z"/>
<path d="M586 1158 l94 -163 0 -460 c0 -345 3 -464 12 -473 17 -17 739 -17
756 0 9 9 12 164 12 635 l0 623 -45 0 -45 0 -2 -587 -3 -588 -295 0 -295 0 -2
441 -3 440 -83 145 -83 144 -57 3 -56 3 95 -163z"/>
<path d="M2330 697 c0 -471 3 -626 12 -635 17 -17 739 -17 756 0 9 9 12 128
12 472 l0 460 90 157 c50 86 90 159 90 163 0 4 -23 6 -52 4 l-52 -3 -85 -145
-86 -145 -1 -245 c-1 -135 -2 -334 -3 -443 l-1 -197 -292 2 -293 3 -3 588 -2
587 -45 0 -45 0 0 -623z"/>
</g>
</svg>
