<?xml version="1.0" standalone="no"?>
<!DOCTYPE svg PUBLIC "-//W3C//DTD SVG 20010904//EN"
 "http://www.w3.org/TR/2001/REC-SVG-20010904/DTD/svg10.dtd">
<svg version="1.0" xmlns="http://www.w3.org/2000/svg"
 width="540.000000pt" height="136.000000pt" viewBox="0 0 540.000000 136.000000"
 preserveAspectRatio="xMidYMid meet">

<g transform="translate(0.000000,136.000000) scale(0.100000,-0.100000)"
fill="#000000" stroke="none">
<path d="M429 1246 c-20 -7 -53 -27 -75 -44 l-39 -31 0 -108 c0 -100 2 -109
21 -117 11 -5 29 -23 41 -40 l20 -31 -51 -11 c-28 -6 -65 -17 -83 -25 -27 -11
-37 -10 -72 6 -40 17 -42 17 -61 0 -11 -10 -34 -47 -51 -81 -25 -50 -30 -70
-25 -99 6 -29 12 -37 37 -42 34 -7 33 -15 -12 -104 -39 -75 -31 -120 31 -162
32 -23 72 -22 102 3 l25 19 6 -46 c3 -28 12 -52 22 -60 14 -10 18 -27 18 -83
l0 -70 213 0 214 0 0 38 c0 74 6 82 65 82 59 0 81 16 91 68 4 18 10 32 13 32
13 0 31 -24 31 -42 0 -21 35 -42 57 -34 8 3 23 1 35 -5 15 -8 24 -7 38 6 15
14 21 14 39 3 18 -11 23 -10 35 7 23 31 19 43 -24 71 -22 15 -40 35 -40 44 0
20 -23 34 -60 35 -38 1 -180 94 -180 117 0 44 -32 175 -49 198 -31 44 -53 99
-48 120 7 27 -15 48 -58 56 -37 7 -65 -7 -65 -32 0 -8 -9 -14 -20 -14 -11 0
-20 2 -20 5 0 14 45 65 57 65 25 0 35 43 24 102 -5 31 -8 71 -5 90 5 30 1 37
-38 69 -37 30 -96 60 -117 59 -3 -1 -22 -7 -42 -14z m104 -33 l32 -17 -45 -7
c-25 -4 -65 -4 -89 -1 l-44 5 22 19 c29 23 82 23 124 1z m-140 -68 c-6 -18
-34 -16 -41 3 -2 7 6 12 22 12 19 0 24 -4 19 -15z m137 6 c0 -13 -26 -32 -33
-24 -14 13 -6 33 13 33 11 0 20 -4 20 -9z m-110 -63 c35 1 62 1 110 -1 14 -1
35 2 46 6 18 6 22 3 27 -20 7 -37 -7 -51 -31 -30 -26 24 -173 24 -197 1 -22
-22 -40 -4 -31 31 5 21 11 25 24 19 9 -4 33 -7 52 -6z m134 -63 c34 -35 -41
-84 -107 -71 -57 11 -85 54 -49 75 28 17 138 13 156 -4z m130 -146 c16 -15 0
-20 -32 -8 -40 14 -43 34 -4 24 15 -3 31 -11 36 -16z m-164 -28 c0 -13 -29
-41 -41 -41 -18 0 -46 19 -53 35 -4 12 4 15 44 15 28 0 50 -4 50 -9z m129 -2
c29 -10 43 -29 22 -29 -20 0 -61 20 -61 30 0 12 0 12 39 -1z m-236 -53 c10
-27 16 -50 14 -52 -2 -2 -39 12 -81 32 -43 19 -76 38 -73 41 11 11 83 32 102
30 13 -1 25 -17 38 -51z m161 37 c-4 -10 -8 -44 -9 -75 -1 -65 -5 -71 -30 -62
-14 6 -16 14 -11 48 10 66 26 106 43 106 11 0 13 -5 7 -17z m96 -45 c0 -6 -15
-6 -32 -3 -41 9 -50 14 -43 25 6 10 75 -10 75 -22z m-355 -24 c93 -41 104 -48
93 -63 -23 -29 -32 -31 -128 -25 -102 7 -130 16 -130 40 0 20 41 94 52 94 4 0
55 -21 113 -46z m391 -11 c-4 -21 -9 -62 -13 -90 -3 -29 -7 -53 -9 -53 -2 0
-15 5 -29 12 -35 16 -36 71 -1 93 13 9 26 29 30 45 9 46 30 38 22 -7z m-78 11
c12 -4 22 -10 22 -15 0 -14 -34 -10 -56 6 -21 16 -8 20 34 9z m-118 -79 c26
-16 40 -33 42 -51 4 -37 69 -74 97 -57 30 19 35 -2 10 -37 -13 -16 -25 -30
-28 -30 -17 0 -68 43 -81 67 -9 15 -36 38 -60 51 -51 25 -56 33 -40 61 13 26
12 26 60 -4z m3 -93 c17 -18 18 -23 7 -36 -7 -9 -27 -16 -46 -16 -18 0 -36 -4
-39 -10 -12 -20 -30 -9 -47 29 -10 20 -18 40 -18 44 0 25 116 16 143 -11z
m-153 -36 c0 -7 -27 -25 -60 -41 l-61 -29 -21 22 -22 21 25 10 c13 5 44 18 69
29 45 21 70 16 70 -12z m489 -84 c58 -37 107 -73 109 -81 7 -21 -18 -9 -135
66 -57 36 -100 69 -97 74 8 14 13 12 123 -59z m-650 22 c61 -78 -24 -170 -95
-104 -29 28 -33 84 -7 112 25 28 77 24 102 -8z m371 -34 c0 -28 -2 -30 -40
-30 -36 0 -40 3 -40 24 0 27 11 34 53 35 24 1 27 -3 27 -29z m107 9 c44 -27
29 -49 -33 -49 -38 0 -44 3 -50 24 -12 50 25 61 83 25z m-222 -54 c0 -28 -3
-30 -35 -30 -26 0 -36 5 -38 18 -7 34 6 48 40 45 29 -3 33 -6 33 -33z m-107
-2 c-3 -29 -32 -41 -66 -28 -14 6 -12 10 13 31 40 32 57 31 53 -3z m492 -12
c7 -13 7 -28 0 -45 -9 -23 -15 -26 -63 -26 -57 0 -77 12 -77 45 0 33 20 45 77
45 41 0 54 -4 63 -19z m184 -9 c6 -10 -43 -82 -55 -82 -19 0 -19 23 1 55 21
33 43 44 54 27z m-350 -34 c2 -1 6 -22 9 -45 l5 -43 -39 0 c-44 0 -59 18 -59
71 0 31 0 32 41 26 22 -3 42 -7 43 -9z m397 -25 c25 -15 40 -43 23 -43 -16 0
-74 43 -68 51 7 12 12 12 45 -8z m-724 -7 c3 -3 3 -12 -1 -21 -4 -11 -16 -15
-38 -13 -26 2 -34 8 -36 27 -4 22 -1 24 33 18 21 -3 40 -8 42 -11z m110 0 c3
-3 3 -12 -1 -21 -4 -11 -16 -15 -38 -13 -26 2 -34 8 -36 27 -4 22 -1 24 33 18
21 -3 40 -8 42 -11z m113 -28 c0 -28 33 -48 82 -48 87 0 46 -44 -51 -54 -79
-8 -91 1 -91 65 0 48 1 49 30 49 17 0 30 -5 30 -12z m-144 -28 c42 0 44 -1 44
-29 0 -42 -21 -55 -76 -46 -74 11 -94 21 -94 49 0 19 6 26 28 29 15 2 33 2 40
0 8 -1 34 -3 58 -3z"/>
<path d="M435 1000 c3 -5 8 -10 11 -10 2 0 4 5 4 10 0 6 -5 10 -11 10 -5 0 -7
-4 -4 -10z"/>
<path d="M490 1000 c0 -5 5 -10 10 -10 6 0 10 5 10 10 0 6 -4 10 -10 10 -5 0
-10 -4 -10 -10z"/>
<path d="M650 450 c0 -5 5 -10 10 -10 6 0 10 5 10 10 0 6 -4 10 -10 10 -5 0
-10 -4 -10 -10z"/>
<path d="M1492 668 c3 -448 5 -513 18 -513 13 0 15 63 15 510 0 479 -1 510
-18 513 -16 3 -17 -25 -15 -510z"/>
<path d="M3991 827 c-93 -33 -106 -170 -22 -220 65 -38 191 -6 199 51 3 19 -1
22 -30 22 -21 0 -40 -7 -51 -20 -20 -24 -45 -25 -75 -4 -27 18 -31 84 -6 108
22 22 67 20 89 -4 19 -21 60 -27 70 -11 9 16 -16 58 -41 70 -40 18 -97 22
-133 8z"/>
<path d="M4295 833 c-11 -2 -35 -16 -54 -32 -26 -21 -34 -36 -38 -72 -10 -86
41 -139 132 -139 86 0 135 47 135 129 0 80 -82 133 -175 114z m84 -66 c23 -28
23 -71 1 -100 -26 -32 -60 -35 -85 -7 -22 24 -25 81 -6 104 16 19 74 21 90 3z"/>
<path d="M5130 827 c-19 -7 -41 -24 -49 -39 -14 -25 -14 -29 5 -55 16 -21 36
-32 82 -42 60 -14 79 -32 46 -45 -26 -10 -51 -7 -64 9 -7 8 -28 15 -46 15 -27
0 -34 -4 -34 -20 0 -69 208 -82 234 -15 20 54 -11 88 -95 104 -38 8 -59 17
-56 24 6 19 62 20 77 3 13 -17 55 -22 64 -8 13 21 -8 52 -45 66 -46 19 -71 19
-119 3z"/>
<path d="M1780 818 c0 -16 78 -198 92 -215 6 -7 25 -13 43 -13 18 0 37 6 42
13 12 16 93 205 93 218 0 6 -16 9 -36 7 -36 -3 -37 -5 -67 -81 -17 -42 -33
-75 -36 -71 -3 3 -20 38 -36 77 -28 66 -33 72 -63 75 -21 2 -32 -1 -32 -10z"/>
<path d="M2082 713 l3 -118 110 0 110 0 0 25 c0 24 -2 25 -78 28 -68 2 -78 5
-75 20 2 13 16 18 61 20 53 3 57 5 57 27 0 22 -4 24 -57 27 -33 2 -58 8 -60
15 -3 9 18 13 74 15 76 3 78 4 78 28 l0 25 -113 3 -113 3 3 -118z"/>
<path d="M2325 820 c-3 -6 -3 -19 0 -30 5 -15 15 -20 45 -20 l39 0 3 -87 3
-88 30 0 30 0 3 87 3 87 37 3 c32 3 37 7 40 31 l3 27 -115 0 c-66 0 -117 -4
-121 -10z"/>
<path d="M2594 817 c-2 -7 -3 -60 -2 -118 l3 -104 110 0 110 0 3 28 3 27 -75
0 c-69 0 -76 2 -76 20 0 18 7 20 55 20 52 0 55 1 55 25 0 24 -3 25 -54 25 -38
0 -56 4 -59 15 -5 11 8 15 71 17 76 3 77 3 80 31 l3 27 -111 0 c-82 0 -112 -3
-116 -13z"/>
<path d="M2862 713 l3 -118 30 0 c28 0 30 3 33 43 3 37 6 42 28 42 24 0 64
-31 64 -49 0 -19 32 -41 61 -41 35 0 36 12 5 66 l-24 42 20 20 c28 27 17 67
-25 92 -25 16 -50 20 -115 20 l-83 0 3 -117z m152 55 c24 -10 24 -12 8 -24 -9
-7 -34 -14 -54 -14 -34 0 -38 3 -38 25 0 21 5 25 30 25 16 0 40 -5 54 -12z"/>
<path d="M3173 718 c-28 -62 -49 -116 -46 -120 2 -5 18 -8 34 -8 22 0 32 6 39
25 9 22 15 25 63 25 48 0 55 -3 65 -25 9 -18 19 -25 41 -25 16 0 32 3 35 8 2
4 -18 57 -44 117 l-49 110 -44 3 -44 3 -50 -113z m111 -5 c6 -20 4 -23 -18
-23 -29 0 -31 7 -14 45 12 27 19 23 32 -22z"/>
<path d="M3442 713 l3 -118 30 0 c30 0 30 1 35 65 l5 65 45 -65 c41 -59 49
-65 80 -65 l35 0 3 118 3 117 -35 0 -35 0 -3 -67 -3 -68 -45 65 c-41 58 -49
65 -83 68 l-38 3 3 -118z"/>
<path d="M4518 824 c-11 -10 -10 -206 1 -222 5 -8 21 -12 37 -10 26 3 29 7 32
46 3 37 6 42 27 42 22 0 55 -23 55 -39 0 -17 43 -51 65 -51 37 0 39 16 6 65
-29 43 -29 45 -11 55 28 15 27 71 -1 96 -17 15 -40 20 -113 22 -50 2 -94 0
-98 -4z m151 -53 c27 -17 4 -41 -39 -41 -36 0 -40 2 -40 25 0 22 4 25 33 25
17 0 38 -4 46 -9z"/>
<path d="M4804 817 c-2 -7 -3 -60 -2 -118 l3 -104 32 -3 c32 -3 48 16 41 49
-2 10 13 15 52 19 31 3 68 13 82 22 52 34 43 108 -17 133 -45 19 -184 20 -191
2z m152 -51 c30 -23 7 -51 -42 -51 -40 0 -53 17 -40 51 7 18 57 18 82 0z"/>
<path d="M3714 566 c-15 -39 2 -47 88 -44 77 3 83 5 86 26 3 20 -1 22 -45 22
-26 0 -65 3 -85 6 -29 5 -39 3 -44 -10z"/>
</g>
</svg>
